# 3ds Max Wavefront OBJ Exporter v0.97b - (c)2007 guruware
# File Created: 02.01.2011 21:18:06

mtllib ground1.mtl

#
# object Box33
#

v  7.9642 -0.7886 -1.0928
v  -8.5946 -0.7886 9.3654
v  -8.5946 -0.7886 -1.0928
v  7.9642 -0.7886 9.3654
v  -8.5946 -0.3529 9.3654
v  7.9642 -0.3529 9.3654
v  7.9642 -0.3529 -1.0928
v  -8.5946 -0.3529 -1.0928
v  -4.8049 -0.3529 1.1764
v  -4.8049 -0.3529 7.6013
v  4.5460 -0.6568 7.6013
v  -4.8049 -0.6568 7.6013
v  4.5460 -0.6568 1.1764
v  4.5460 -0.3529 7.6013
v  4.5460 -0.3529 1.1764
v  -4.8049 -0.6568 1.1764
# 16 vertices

vn 0.0000 -1.0000 -0.0000
vn 0.0000 0.0000 1.0000
vn 1.0000 0.0000 -0.0000
vn 0.0000 0.0000 -1.0000
vn -1.0000 0.0000 -0.0000
vn 0.0000 1.0000 -0.0000
vn 0.0000 1.0000 0.0000
# 7 vertex normals

vt 0.0005 0.9995 0.4786
vt 0.9995 0.0005 0.4786
vt 0.9995 0.9995 0.4786
vt 0.9995 0.4786 0.0005
vt 0.0005 0.5214 0.0005
vt 0.0005 0.4786 0.0005
vt 0.9995 0.4786 0.9995
vt 0.0005 0.5214 0.9995
vt 0.0005 0.4786 0.9995
vt 0.2291 0.7827 0.5214
vt 0.0005 0.0005 0.5214
vt 0.2291 0.1690 0.5214
vt 0.7709 0.5214 0.1690
vt 0.2067 0.4915 0.1690
vt 0.7709 0.4915 0.1690
vt 0.2173 0.4915 0.7933
vt 0.8310 0.5214 0.7933
vt 0.2173 0.5214 0.7933
vt 0.2291 0.5214 0.7827
vt 0.7933 0.4915 0.7827
vt 0.7933 0.5214 0.7827
vt 0.7933 0.1690 0.4915
vt 0.2291 0.7827 0.4915
vt 0.2291 0.1690 0.4915
vt 0.1690 0.5214 0.2291
vt 0.7827 0.4915 0.2291
vt 0.7827 0.5214 0.2291
vt 0.0005 0.0005 0.4786
vt 0.9995 0.5214 0.0005
vt 0.9995 0.5214 0.9995
vt 0.7933 0.1690 0.5214
vt 0.9995 0.0005 0.5214
vt 0.9995 0.9995 0.5214
vt 0.7933 0.7827 0.5214
vt 0.0005 0.9995 0.5214
vt 0.2067 0.5214 0.1690
vt 0.8310 0.4915 0.7933
vt 0.2291 0.4915 0.7827
vt 0.7933 0.7827 0.4915
vt 0.1690 0.4915 0.2291
# 40 texture coords

g Box33
usemtl 17___Default
s 4
f 1/1/1 2/2/1 3/3/1 
s 8
f 4/4/2 5/5/2 2/6/2 
s 16
f 1/7/3 6/8/3 4/9/3 
s 32
f 3/7/4 7/8/4 1/9/4 
s 64
f 2/4/5 8/5/5 3/6/5 
s 2
f 9/10/6 5/11/6 10/12/6 
s 1
f 10/13/4 11/14/4 12/15/4 
s 4
f 13/16/5 14/17/5 15/18/5 
s 1
f 9/19/2 13/20/2 15/21/2 
s 2
f 11/22/7 16/23/7 12/24/7 
s 4
f 10/25/3 16/26/3 9/27/3 
f 2/2/1 1/1/1 4/28/1 
s 8
f 5/5/2 4/4/2 6/29/2 
s 16
f 6/8/3 1/7/3 7/30/3 
s 32
f 7/8/4 3/7/4 8/30/4 
s 64
f 8/5/5 2/4/5 5/29/5 
s 2
f 14/31/6 5/11/6 6/32/6 
f 10/12/6 5/11/6 14/31/6 
f 7/33/6 14/31/6 6/32/6 
f 7/33/6 15/34/6 14/31/6 
f 8/35/6 15/34/6 7/33/6 
f 8/35/6 9/10/6 15/34/6 
f 5/11/6 9/10/6 8/35/6 
s 1
f 11/14/4 10/13/4 14/36/4 
s 4
f 14/17/5 13/16/5 11/37/5 
s 1
f 13/20/2 9/19/2 16/38/2 
s 2
f 16/23/7 11/22/7 13/39/7 
s 4
f 16/26/3 10/25/3 12/40/3 
# 28 faces

