# Blender v3.0.1 OBJ File: ''
# www.blender.org
mtllib cornell.mtl
o CornellBox-Original
v -1.010000 -0.000000 0.990000
v 1.000000 -0.000000 0.990000
v 1.000000 0.000000 -1.040000
v -0.990000 0.000000 -1.040000
v -1.020000 1.990000 0.990000
v -1.020000 1.990000 -1.040000
v 1.000000 1.990000 -1.040000
v 1.000000 1.990000 0.990000
v -0.990000 0.000000 -1.040000
v 1.000000 0.000000 -1.040000
v 1.000000 1.990000 -1.040000
v -1.020000 1.990000 -1.040000
v 1.000000 0.000000 -1.040000
v 1.000000 -0.000000 0.990000
v 1.000000 1.990000 0.990000
v 1.000000 1.990000 -1.040000
v -1.010000 -0.000000 0.990000
v -0.990000 0.000000 -1.040000
v -1.020000 1.990000 -1.040000
v -1.020000 1.990000 0.990000
v 0.530000 0.600000 0.750000
v 0.700000 0.600000 0.170000
v 0.130000 0.600000 0.000000
v -0.050000 0.600000 0.570000
v -0.050000 -0.000000 0.570000
v -0.050000 0.600000 0.570000
v 0.130000 0.600000 0.000000
v 0.130000 0.000000 0.000000
v 0.530000 -0.000000 0.750000
v 0.530000 0.600000 0.750000
v -0.050000 0.600000 0.570000
v -0.050000 -0.000000 0.570000
v 0.700000 -0.000000 0.170000
v 0.700000 0.600000 0.170000
v 0.530000 0.600000 0.750000
v 0.530000 -0.000000 0.750000
v 0.130000 0.000000 0.000000
v 0.130000 0.600000 0.000000
v 0.700000 0.600000 0.170000
v 0.700000 -0.000000 0.170000
v -0.530000 1.200000 0.090000
v 0.040000 1.200000 -0.090000
v -0.140000 1.200000 -0.670000
v -0.710000 1.200000 -0.490000
v -0.530000 -0.000000 0.090000
v -0.530000 1.200000 0.090000
v -0.710000 1.200000 -0.490000
v -0.710000 0.000000 -0.490000
v -0.710000 0.000000 -0.490000
v -0.710000 1.200000 -0.490000
v -0.140000 1.200000 -0.670000
v -0.140000 0.000000 -0.670000
v -0.140000 0.000000 -0.670000
v -0.140000 1.200000 -0.670000
v 0.040000 1.200000 -0.090000
v 0.040000 0.000000 -0.090000
v 0.040000 0.000000 -0.090000
v 0.040000 1.200000 -0.090000
v -0.530000 1.200000 0.090000
v -0.530000 -0.000000 0.090000
v -0.240000 1.980000 0.160000
v -0.240000 1.980000 -0.220000
v 0.230000 1.980000 -0.220000
v 0.230000 1.980000 0.160000
vn 0.0000 1.0000 0.0000
vn 0.0000 -1.0000 -0.0000
vn 0.0000 -0.0000 1.0000
vn -1.0000 0.0000 0.0000
vn 1.0000 0.0050 0.0000
vn 0.9998 0.0151 0.0099
vn -0.9536 0.0000 -0.3011
vn -0.2964 -0.0000 0.9551
vn 0.2858 0.0000 -0.9583
vn 0.9596 -0.0000 0.2813
vn -0.9551 0.0000 0.2964
vn -0.3011 0.0000 -0.9536
vn 0.9551 0.0000 -0.2964
vn 0.3011 -0.0000 0.9536
usemtl floor
s off
f 2//1 4//1 1//1
f 2//1 3//1 4//1
usemtl ceiling
f 6//2 8//2 5//2
f 6//2 7//2 8//2
usemtl backWall
f 9//3 11//3 12//3
f 9//3 10//3 11//3
usemtl rightWall
f 14//4 16//4 13//4
f 14//4 15//4 16//4
usemtl leftWall
f 17//5 19//5 20//5
f 17//6 18//6 19//6
usemtl shortBox
f 21//1 23//1 24//1
f 26//7 28//7 25//7
f 30//8 32//8 29//8
f 38//9 40//9 37//9
f 34//10 36//10 33//10
f 21//1 22//1 23//1
f 26//7 27//7 28//7
f 30//8 31//8 32//8
f 38//9 39//9 40//9
f 34//10 35//10 36//10
usemtl tallBox
f 42//1 44//1 41//1
f 46//11 48//11 45//11
f 50//12 52//12 49//12
f 54//13 56//13 53//13
f 58//14 60//14 57//14
f 42//1 43//1 44//1
f 46//11 47//11 48//11
f 50//12 51//12 52//12
f 54//13 55//13 56//13
f 58//14 59//14 60//14
usemtl light
f 62//2 64//2 61//2
f 62//2 63//2 64//2
