# Blender v2.76 (sub 0) OBJ File: ''
# www.blender.org
mtllib rock_1.mtl
o rocks.001
v 0.114446 0.376370 0.004831
v 0.166436 0.449386 -0.372208
v -0.058384 0.397157 -0.172431
v 0.319406 0.465420 -0.311137
v -0.074634 0.322711 -0.300055
v 0.230726 0.413234 -0.483963
v 0.401036 0.385033 -0.416938
v 0.238556 -0.070006 -0.375299
v 0.079966 -0.236638 -0.002145
v -0.146384 -0.164750 -0.182611
v 0.430146 -0.153013 -0.200483
v -0.271504 -0.123761 -0.024140
v -0.157564 -0.193837 0.135355
v 0.018296 -0.151473 0.270116
v 0.276856 -0.188626 0.140024
v 0.477726 -0.119848 -0.070957
v 0.280506 0.280308 -0.533502
v 0.400326 0.179742 -0.450299
v 0.033926 0.153431 -0.369459
v -0.180634 0.083603 0.331824
v -0.321474 -0.050666 0.197049
v -0.126324 -0.035609 0.328373
v -0.396414 0.098303 0.163091
v -0.483084 0.012086 -0.050452
v -0.505454 0.118083 -0.050577
v 0.003696 0.035241 0.369750
v 0.148156 0.005358 0.327731
v 0.063376 0.146068 0.400216
v 0.211516 0.145086 0.334097
v 0.401236 0.016430 0.155120
v 0.548686 0.091834 -0.049149
v 0.398126 0.210805 0.192211
v 0.604916 0.286297 -0.028036
v 0.573586 0.117815 -0.226561
v 0.651946 0.312656 -0.204530
v 0.241686 0.289294 0.282504
v -0.071244 0.279644 0.188082
v 0.416006 0.393422 0.007138
v 0.532956 0.402358 -0.173391
v -0.311654 0.236773 -0.029538
v -0.400804 0.177241 -0.185169
v -0.337024 0.041768 -0.251124
vt 0.184300 0.529500
vt 0.102600 0.432100
vt 0.093600 0.514400
vt 0.152600 0.398500
vt 0.002800 0.499200
vt 0.061800 0.383400
vt 0.120800 0.267600
vt 0.763000 0.458700
vt 0.656300 0.581600
vt 0.761700 0.633100
vt 0.667900 0.447400
vt 0.760400 0.807400
vt 0.644800 0.715700
vt 0.529200 0.624000
vt 0.551000 0.530000
vt 0.572800 0.436100
vt 0.899400 0.480700
vt 0.849400 0.425700
vt 0.881100 0.524700
vt 0.935900 0.392600
vt 0.967500 0.491700
vt 0.999200 0.590700
vt 0.304100 0.776100
vt 0.207200 0.892000
vt 0.336200 0.878000
vt 0.169400 0.794800
vt 0.368300 0.979800
vt 0.245000 0.989200
vt 0.121800 0.998700
vt 0.078200 0.906000
vt 0.034700 0.813400
vt 0.369300 0.846100
vt 0.401900 0.881000
vt 0.369900 0.779200
vt 0.435600 0.782300
vt 0.457800 0.469300
vt 0.469500 0.339200
vt 0.446000 0.599500
vt 0.362900 0.574900
vt 0.364500 0.408600
vt 0.366100 0.242300
vt 0.201400 0.150000
vt 0.243500 0.254900
vt 0.312100 0.121200
vt 0.090600 0.178800
vt 0.060400 0.090100
vt 0.159300 0.045100
vt 0.258100 0.000000
vt 0.304300 0.530700
vt 0.333500 0.675500
vt 0.244200 0.652800
vt 0.275200 0.385900
vt 0.223800 0.346500
vt 0.131500 0.654600
vt 0.018800 0.656300
vt 0.864000 0.679900
vt 0.846900 0.835200
vt 0.966300 0.726800
vt 0.933500 0.862900
vn -0.135900 0.953000 0.270900
vn -0.242300 0.934800 -0.259800
vn -0.411200 0.911600 0.002900
vn 0.131400 0.984200 -0.119000
vn -0.548700 0.513500 -0.659700
vn -0.103000 0.672500 -0.732900
vn 0.551700 0.554600 -0.623000
vn 0.067400 -0.628600 -0.774800
vn 0.000500 -0.998700 -0.050300
vn -0.326000 -0.833600 -0.445900
vn 0.492200 -0.784900 -0.376500
vn -0.499800 -0.858300 -0.116300
vn -0.336400 -0.908800 0.246600
vn 0.042700 -0.745200 0.665500
vn 0.400700 -0.771800 0.493700
vn 0.733400 -0.658400 0.169100
vn 0.051900 0.014900 -0.998500
vn 0.596800 -0.236400 -0.766800
vn -0.390700 -0.108100 -0.914200
vn -0.449400 0.263700 0.853500
vn -0.579800 -0.600400 0.550700
vn -0.297700 -0.449600 0.842100
vn -0.687900 0.266900 0.674900
vn -0.706600 -0.687800 -0.166300
vn -0.981700 0.190000 -0.014600
vn -0.001700 -0.302000 0.953300
vn 0.371800 -0.401600 0.836900
vn -0.006900 0.265200 0.964200
vn 0.483000 -0.039300 0.874700
vn 0.680900 -0.314900 0.661200
vn 0.904900 -0.311500 0.290000
vn 0.662400 0.114900 0.740300
vn 0.858900 0.246500 0.448900
vn 0.862200 -0.341800 -0.373900
vn 0.943800 0.244300 -0.222500
vn 0.222200 0.663500 0.714500
vn -0.336400 0.818900 0.465000
vn 0.226200 0.918500 0.324200
vn 0.430800 0.901000 0.050600
vn -0.431600 0.886600 0.166200
vn -0.603500 0.560700 -0.567000
vn -0.520100 -0.292800 -0.802300
usemtl Granite_1.001
s 1
f 1/1/1 2/2/2 3/3/3
f 2/2/2 1/1/1 4/4/4
f 5/5/5 2/2/2 6/6/6
f 2/2/2 5/5/5 3/3/3
f 7/7/7 2/2/2 4/4/4
f 2/2/2 7/7/7 6/6/6
f 8/8/8 9/9/9 10/10/10
f 9/9/9 8/8/8 11/11/11
f 12/12/12 9/9/9 13/13/13
f 9/9/9 12/12/12 10/10/10
f 14/14/14 9/9/9 15/15/15
f 9/9/9 14/14/14 13/13/13
f 16/16/16 9/9/9 11/11/11
f 9/9/9 16/16/16 15/15/15
f 8/8/8 17/17/17 18/18/18
f 17/17/17 8/8/8 19/19/19
f 7/20/7 17/17/17 6/21/6
f 17/17/17 7/20/7 18/18/18
f 5/22/5 17/17/17 19/19/19
f 17/17/17 5/22/5 6/21/6
f 20/23/20 21/24/21 22/25/22
f 21/24/21 20/23/20 23/26/23
f 14/27/14 21/24/21 13/28/13
f 21/24/21 14/27/14 22/25/22
f 12/29/12 21/24/21 24/30/24
f 21/24/21 12/29/12 13/28/13
f 25/31/25 21/24/21 23/26/23
f 21/24/21 25/31/25 24/30/24
f 14/27/14 26/32/26 22/25/22
f 26/32/26 14/27/14 27/33/27
f 20/23/20 26/32/26 28/34/28
f 26/32/26 20/23/20 22/25/22
f 29/35/29 26/32/26 27/33/27
f 26/32/26 29/35/29 28/34/28
f 16/16/16 30/36/30 15/15/15
f 30/36/30 16/16/16 31/37/31
f 14/14/14 30/36/30 27/38/27
f 30/36/30 14/14/14 15/15/15
f 29/39/29 30/36/30 32/40/32
f 30/36/30 29/39/29 27/38/27
f 33/41/33 30/36/30 31/37/31
f 30/36/30 33/41/33 32/40/32
f 33/41/33 34/42/34 35/43/35
f 34/42/34 33/41/33 31/44/31
f 7/7/7 34/42/34 18/45/18
f 34/42/34 7/7/7 35/43/35
f 8/46/8 34/42/34 11/47/11
f 34/42/34 8/46/8 18/45/18
f 16/48/16 34/42/34 31/44/31
f 34/42/34 16/48/16 11/47/11
f 29/39/29 36/49/36 28/50/28
f 36/49/36 29/39/29 32/40/32
f 20/23/20 36/49/36 37/51/37
f 36/49/36 20/23/20 28/50/28
f 1/1/1 36/49/36 38/52/38
f 36/49/36 1/1/1 37/51/37
f 33/41/33 36/49/36 32/40/32
f 36/49/36 33/41/33 38/52/38
f 33/41/33 39/53/39 38/52/38
f 39/53/39 33/41/33 35/43/35
f 1/1/1 39/53/39 4/4/4
f 39/53/39 1/1/1 38/52/38
f 7/7/7 39/53/39 35/43/35
f 39/53/39 7/7/7 4/4/4
f 5/5/5 40/54/40 3/3/3
f 40/54/40 5/5/5 41/55/41
f 1/1/1 40/54/40 37/51/37
f 40/54/40 1/1/1 3/3/3
f 20/23/20 40/54/40 23/26/23
f 40/54/40 20/23/20 37/51/37
f 25/31/25 40/54/40 41/55/41
f 40/54/40 25/31/25 23/26/23
f 12/12/12 42/56/42 10/10/10
f 42/56/42 12/12/12 24/57/24
f 8/8/8 42/56/42 19/19/19
f 42/56/42 8/8/8 10/10/10
f 5/22/5 42/56/42 41/58/41
f 42/56/42 5/22/5 19/19/19
f 25/59/25 42/56/42 24/57/24
f 42/56/42 25/59/25 41/58/41
